<?xml version="1.0" encoding="utf-8"?>
<!-- Generator: Adobe Illustrator 25.4.1, SVG Export Plug-In . SVG Version: 6.00 Build 0)  -->
<svg version="1.1" id="Capa_1" xmlns="http://www.w3.org/2000/svg" xmlns:xlink="http://www.w3.org/1999/xlink" x="0px" y="0px"
	 viewBox="0 0 271.6 227.7" style="enable-background:new 0 0 271.6 227.7;" xml:space="preserve">
<style type="text/css">
	.st0{fill:#010202;}
</style>
<g>
	<path class="st0" d="M94.9,148.9c0.8,3.6,1.2,6.9,2.5,9.9c0.5,1.2,3,2.1,4.6,2.1c17.2,0.2,34.3,0.1,51.5,0.2
		c25.2,0,50.3,0.1,75.5,0.1c2.5,0,5,0,7.5,0.5c4.9,1,7.9,5.2,7.7,10.2c-0.2,5-3.7,8.7-8.8,9.3c-1.2,0.1-2.3,0.1-3.5,0.1
		c-46.3-0.1-92.7-0.2-139-0.2c-8.8,0-11.5-2.1-13.6-10.7c-11.7-47.9-23.6-95.7-35-143.6c-1.3-5.3-3.3-7-8.6-6.7
		c-8.1,0.4-16.3,0.1-24.5,0C4.1,20,0,16.2,0,10.1C0,4.1,4.4,0,11.2,0c12.3,0,24.7,0,37,0.1c7.6,0.1,10.6,2.5,12.4,9.7
		c1.7,6.4,3.4,12.9,4.6,19.4c0.7,3.6,2.3,4.7,6,4.7c42.5-0.1,85,0,127.5,0c20,0,40,0,60,0c10.5,0,14.7,5.4,11.9,15.3
		c-6.6,23.9-13.3,47.8-19.9,71.7c-1.9,6.9-4.4,9-11.4,9.9c-46.6,5.7-93.2,11.5-139.8,17.2C98.1,148.2,96.7,148.6,94.9,148.9z"/>
	<path class="st0" d="M131.3,208c0,11-8.8,19.8-19.6,19.7c-10.9-0.1-19.6-9-19.5-19.9c0.1-10.7,8.7-19.3,19.4-19.4
		C122.5,188.3,131.2,197,131.3,208z"/>
	<path class="st0" d="M192.9,207.5c0.3-10.9,9.4-19.6,20.1-19.1c10.9,0.5,19.4,9.6,19,20.4c-0.4,10.6-9.5,19.2-20,18.9
		C201.1,227.4,192.6,218.4,192.9,207.5z"/>
</g>
</svg>
